<svg xmlns="http://www.w3.org/2000/svg" width="98.857" height="98.856" viewBox="0 0 98.857 98.856"><defs><style>.a{fill:#e1e6f0;}.b{fill:#cfd7e6;}.c{fill:#f3f5f9;}.d{fill:#ffbe40;}.e{fill:#ffdf40;}.f{fill:#515866;}.g{fill:#353d4d;}.h{fill:#ff9f40;}.i{fill:#1e2533;}</style></defs><g transform="translate(0.001 -0.003)"><path class="a" d="M18.928,6.644A22.83,22.83,0,0,0,2.9,0H0V2.9A22.83,22.83,0,0,0,6.641,18.931L61.163,73.452l6.143-6.143,6.143-6.143Z" transform="translate(-0.001)"/><path class="b" d="M18.928,6.644A22.83,22.83,0,0,0,2.9,0H0L67.306,67.309l6.143-6.143Z" transform="translate(-0.001)"/><path class="c" d="M202.136,0A22.83,22.83,0,0,0,186.1,6.644L131.583,61.166l6.143,6.143,6.143,6.143,54.522-54.521A22.831,22.831,0,0,0,205.033,2.9V0h-2.9Z" transform="translate(-106.177 0)"/><path class="a" d="M224.065,18.932A22.831,22.831,0,0,0,230.706,2.9V0L163.4,67.31l6.143,6.143Z" transform="translate(-131.85 -0.001)"/><g transform="translate(57.553 1.052)"><path class="d" d="M0,0H16.384V5.792H0Z" transform="translate(0 11.584) rotate(-45)"/></g><g transform="translate(25.607 1.049)"><path class="e" d="M0,0H5.792V16.384H0Z" transform="translate(0 4.095) rotate(-45)"/></g><path class="e" d="M243.874,0h-2.9V17.574h5.793V0Z" transform="translate(-194.449)"/><path class="d" d="M255.978,0h2.9V17.574h-2.9Z" transform="translate(-206.552 0)"/><path class="f" d="M24.455,359.648,18.31,353.5,2.541,369.275A8.688,8.688,0,1,0,14.83,381.559L30.6,365.79Z" transform="translate(0 -285.243)"/><path class="g" d="M25.451,407.238l15.766-15.769-6.142-6.142L13.162,407.241A8.7,8.7,0,0,0,25.451,407.238Z" transform="translate(-10.621 -310.923)"/><path class="e" d="M105.06,306.158,94.923,296.021,84.786,285.884l-6.992-1.7a9.474,9.474,0,0,1,2.478,8.932,14.482,14.482,0,0,0,17.55,17.553,9.454,9.454,0,0,1,8.935,2.478Z" transform="translate(-62.774 -229.312)"/><path class="d" d="M124.11,360.127a9.454,9.454,0,0,1,8.935,2.478l-1.7-6.992-10.137-10.137-10.839,10.839a14.6,14.6,0,0,0,13.738,3.813Z" transform="translate(-89.061 -278.766)"/><path class="d" d="M96.371,277.458,81.89,262.976l-4.1,4.1,14.482,14.482,14.482,14.482,4.1-4.1Z" transform="translate(-62.774 -212.196)"/><path class="h" d="M0,0H5.792V20.48H0Z" transform="translate(29.491 69.354) rotate(-45)"/><path class="g" d="M381.57,369.275,365.8,353.5l-6.145,6.145-6.142,6.142,15.766,15.769a8.688,8.688,0,1,0,12.29-12.284Z" transform="translate(-285.255 -285.243)"/><path class="i" d="M407.237,369.275,391.468,353.5l-6.145,6.145,21.914,21.914a8.7,8.7,0,0,0,0-12.287Z" transform="translate(-310.922 -285.243)"/><path class="e" d="M313.147,284.187l-6.992,1.7-10.137,10.137-10.137,10.137-1.7,6.992a9.454,9.454,0,0,1,8.935-2.478,14.482,14.482,0,0,0,17.55-17.553A9.474,9.474,0,0,1,313.147,284.187Z" transform="translate(-229.312 -229.312)"/><path class="d" d="M360.124,293.119a9.474,9.474,0,0,1,2.478-8.932l-6.992,1.7-10.137,10.137,10.839,10.839A14.567,14.567,0,0,0,360.124,293.119Z" transform="translate(-278.767 -229.312)"/><path class="d" d="M291.936,262.976l-14.482,14.482-14.482,14.482,4.1,4.1,14.482-14.482,14.482-14.482Z" transform="translate(-212.197 -212.196)"/><path class="h" d="M0,0H20.48V5.792H0Z" transform="translate(65.245 65.262) rotate(-45)"/></g></svg>