<svg xmlns="http://www.w3.org/2000/svg" width="123.344" height="112.711" viewBox="0 0 123.344 112.711"><defs><style>.a{fill:#ff6243;}.b{fill:#ff5023;}</style></defs><g transform="translate(14.238 13.011)"><path class="a" d="M90.382,0A32.935,32.935,0,0,0,61.672,16.8,32.935,32.935,0,0,0,32.963,0C14.759,0,0,16.885,0,35.089c0,45.722,61.672,77.622,61.672,77.622s61.672-31.9,61.672-77.622C123.344,16.885,108.586,0,90.382,0Zm0,0" transform="translate(-14.238 -13.011)"/><path class="b" d="M7.2,29.719C7.2,15.454,17.911,2.17,31.722.259A27.788,27.788,0,0,0,27.918,0C12.5,0,0,14.3,0,29.719,0,68.443,52.234,95.461,52.234,95.461s1.351-.7,3.6-2.025C44.036,86.5,7.205,62.24,7.205,29.719Zm0,0" transform="translate(-4.8 -4.386)"/></g></svg>